<?xml version="1.0" encoding="utf-8"?>
<!-- Generator: Adobe Illustrator 16.0.0, SVG Export Plug-In . SVG Version: 6.00 Build 0)  -->
<!DOCTYPE svg PUBLIC "-//W3C//DTD SVG 1.1//EN" "http://www.w3.org/Graphics/SVG/1.1/DTD/svg11.dtd">
<svg version="1.1" xmlns="http://www.w3.org/2000/svg" xmlns:xlink="http://www.w3.org/1999/xlink" x="0px" y="0px" width="512px"
	 height="512px" viewBox="0 0 512 512" enable-background="new 0 0 512 512" xml:space="preserve">
<g id="Layer_2">
</g>
<g id="Layer_1">
	<g>
		<path fill="#231F20" d="M119.387,20.312h21.298v21.045h19.485V20.312h21.303v63.727H160.17V62.7h-19.485v21.338h-21.298V20.312z"
			/>
		<path fill="#231F20" d="M209.482,41.444h-18.754V20.312h58.812v21.133h-18.759v42.594h-21.3L209.482,41.444L209.482,41.444z"/>
		<path fill="#231F20" d="M258.879,20.312h22.21l13.661,22.392l13.648-22.392h22.219v63.727h-21.213V52.453L294.75,75.111h-0.366
			l-14.665-22.658v31.585h-20.84V20.312z"/>
		<path fill="#231F20" d="M341.219,20.312h21.309v42.664h29.955v21.062h-51.264V20.312z"/>
	</g>
	<path d="M200.662,266.676H256v-42.92h-59.169L200.662,266.676z M88.686,111.982l30.47,341.74l136.762,37.966l136.891-37.947
		l30.508-341.758H88.686z M366.693,431.981L256,462.668v-43.494l-0.067,0.021l-85.858-23.835l-6.004-67.299h42.075l3.116,34.914
		l46.68,12.607l0.059-0.02V308.59h-93.669l-11.306-126.749H256v-41.914h136.766L366.693,431.981z"/>
	<path enable-background="new    " d="M307.592,308.59H256v66.975l46.729-12.613L307.592,308.59z M256,139.927v41.914h104.975
		l-3.754,41.915H256v42.92h97.406l-11.499,128.684L256,419.174v43.494l110.693-30.687l26.072-292.056L256,139.927L256,139.927z"/>
</g>
</svg>
